<?xml version="1.0" encoding="UTF-8"?>
<!DOCTYPE svg PUBLIC "-//W3C//DTD SVG 1.1//EN" "http://www.w3.org/Graphics/SVG/1.1/DTD/svg11.dtd">
<svg version="1.2" width="25.4mm" height="31.5mm" viewBox="0 0 2540 3150" preserveAspectRatio="xMidYMid" fill-rule="evenodd" stroke-width="28.222" stroke-linejoin="round" xmlns="http://www.w3.org/2000/svg" xmlns:ooo="http://xml.openoffice.org/svg/export" xmlns:xlink="http://www.w3.org/1999/xlink" xmlns:presentation="http://sun.com/xmlns/staroffice/presentation" xmlns:smil="http://www.w3.org/2001/SMIL20/" xmlns:anim="urn:oasis:names:tc:opendocument:xmlns:animation:1.0" xml:space="preserve">
 <defs class="ClipPathGroup">
  <clipPath id="presentation_clip_path" clipPathUnits="userSpaceOnUse">
   <rect x="0" y="0" width="2540" height="3150"/>
  </clipPath>
  <clipPath id="presentation_clip_path_shrink" clipPathUnits="userSpaceOnUse">
   <rect x="2" y="3" width="2535" height="3144"/>
  </clipPath>
 </defs>
 <defs class="TextShapeIndex">
  <g ooo:slide="id1" ooo:id-list="id3 id4 id5 id6 id7 id8 id9"/>
 </defs>
 <defs class="EmbeddedBulletChars">
  <g id="bullet-char-template-57356" transform="scale(0.00048828125,-0.00048828125)">
   <path d="M 580,1141 L 1163,571 580,0 -4,571 580,1141 Z"/>
  </g>
  <g id="bullet-char-template-57354" transform="scale(0.00048828125,-0.00048828125)">
   <path d="M 8,1128 L 1137,1128 1137,0 8,0 8,1128 Z"/>
  </g>
  <g id="bullet-char-template-10146" transform="scale(0.00048828125,-0.00048828125)">
   <path d="M 174,0 L 602,739 174,1481 1456,739 174,0 Z M 1358,739 L 309,1346 659,739 1358,739 Z"/>
  </g>
  <g id="bullet-char-template-10132" transform="scale(0.00048828125,-0.00048828125)">
   <path d="M 2015,739 L 1276,0 717,0 1260,543 174,543 174,936 1260,936 717,1481 1274,1481 2015,739 Z"/>
  </g>
  <g id="bullet-char-template-10007" transform="scale(0.00048828125,-0.00048828125)">
   <path d="M 0,-2 C -7,14 -16,27 -25,37 L 356,567 C 262,823 215,952 215,954 215,979 228,992 255,992 264,992 276,990 289,987 310,991 331,999 354,1012 L 381,999 492,748 772,1049 836,1024 860,1049 C 881,1039 901,1025 922,1006 886,937 835,863 770,784 769,783 710,716 594,584 L 774,223 C 774,196 753,168 711,139 L 727,119 C 717,90 699,76 672,76 641,76 570,178 457,381 L 164,-76 C 142,-110 111,-127 72,-127 30,-127 9,-110 8,-76 1,-67 -2,-52 -2,-32 -2,-23 -1,-13 0,-2 Z"/>
  </g>
  <g id="bullet-char-template-10004" transform="scale(0.00048828125,-0.00048828125)">
   <path d="M 285,-33 C 182,-33 111,30 74,156 52,228 41,333 41,471 41,549 55,616 82,672 116,743 169,778 240,778 293,778 328,747 346,684 L 369,508 C 377,444 397,411 428,410 L 1163,1116 C 1174,1127 1196,1133 1229,1133 1271,1133 1292,1118 1292,1087 L 1292,965 C 1292,929 1282,901 1262,881 L 442,47 C 390,-6 338,-33 285,-33 Z"/>
  </g>
  <g id="bullet-char-template-9679" transform="scale(0.00048828125,-0.00048828125)">
   <path d="M 813,0 C 632,0 489,54 383,161 276,268 223,411 223,592 223,773 276,916 383,1023 489,1130 632,1184 813,1184 992,1184 1136,1130 1245,1023 1353,916 1407,772 1407,592 1407,412 1353,268 1245,161 1136,54 992,0 813,0 Z"/>
  </g>
  <g id="bullet-char-template-8226" transform="scale(0.00048828125,-0.00048828125)">
   <path d="M 346,457 C 273,457 209,483 155,535 101,586 74,649 74,723 74,796 101,859 155,911 209,963 273,989 346,989 419,989 480,963 531,910 582,859 608,796 608,723 608,648 583,586 532,535 482,483 420,457 346,457 Z"/>
  </g>
  <g id="bullet-char-template-8211" transform="scale(0.00048828125,-0.00048828125)">
   <path d="M -4,459 L 1135,459 1135,606 -4,606 -4,459 Z"/>
  </g>
  <g id="bullet-char-template-61548" transform="scale(0.00048828125,-0.00048828125)">
   <path d="M 173,740 C 173,903 231,1043 346,1159 462,1274 601,1332 765,1332 928,1332 1067,1274 1183,1159 1299,1043 1357,903 1357,740 1357,577 1299,437 1183,322 1067,206 928,148 765,148 601,148 462,206 346,322 231,437 173,577 173,740 Z"/>
  </g>
 </defs>
 <defs class="TextEmbeddedBitmaps"/>
 <g>
  <g id="id2" class="Master_Slide">
   <g id="bg-id2" class="Background"/>
   <g id="bo-id2" class="BackgroundObjects"/>
  </g>
 </g>
 <g class="SlideGroup">
  <g>
   <g id="container-id1">
    <g id="id1" class="Slide" clip-path="url(#presentation_clip_path)">
     <g class="Page">
      <g class="Group">
       <g class="com.sun.star.drawing.ClosedBezierShape">
        <g id="id3">
         <rect class="BoundingBox" stroke="none" fill="none" x="9" y="211" width="1593" height="2412"/>
         <path fill="rgb(248,143,1)" stroke="none" d="M 631,2515 L 631,2501 C 555,2469 445,2494 420,2385 418,2366 417,2341 420,2323 L 425,2214 456,1859 456,1789 501,1318 501,1249 526,986 539,825 C 569,854 598,930 616,971 L 713,1187 987,1774 1125,2044 C 1021,2053 952,2023 851,2086 692,2187 642,2424 828,2527 927,2582 1008,2553 1049,2561 L 1163,2597 C 1181,2605 1197,2617 1217,2621 1245,2627 1269,2610 1256,2579 1248,2558 1227,2548 1208,2539 1224,2483 1204,2478 1208,2435 1212,2389 1264,2218 1287,2176 1327,2101 1435,1988 1497,1928 1517,1908 1590,1853 1597,1833 1609,1804 1585,1747 1571,1720 L 1480,1836 1359,1959 1161,1558 723,647 568,322 C 554,293 525,219 493,212 471,207 463,227 458,245 L 442,361 404,716 386,870 378,948 356,1164 268,1967 237,2245 C 231,2300 228,2358 201,2407 177,2452 148,2473 98,2481 77,2485 27,2481 15,2498 -10,2531 62,2531 76,2531 L 106,2531 220,2523 410,2523 C 486,2523 556,2547 631,2515 Z"/>
        </g>
       </g>
       <g class="com.sun.star.drawing.ClosedBezierShape">
        <g id="id4">
         <rect class="BoundingBox" stroke="none" fill="none" x="767" y="2098" width="419" height="403"/>
         <path fill="rgb(18,18,18)" stroke="none" d="M 973,2101 C 1006,2097 1031,2097 1064,2108 1086,2114 1107,2125 1125,2140 1258,2250 1152,2474 988,2498 890,2512 775,2455 768,2345 760,2227 864,2123 973,2101 Z"/>
        </g>
       </g>
       <g class="com.sun.star.drawing.ClosedBezierShape">
        <g id="id5">
         <rect class="BoundingBox" stroke="none" fill="none" x="763" y="2094" width="427" height="411"/>
         <path fill="none" stroke="rgb(0,0,0)" stroke-width="7" stroke-linejoin="miter" d="M 973,2101 C 1006,2097 1031,2097 1064,2108 1086,2114 1107,2125 1125,2140 1258,2250 1152,2474 988,2498 890,2512 775,2455 768,2345 760,2227 864,2123 973,2101 Z"/>
        </g>
       </g>
       <g class="com.sun.star.drawing.ClosedBezierShape">
        <g id="id6">
         <rect class="BoundingBox" stroke="none" fill="none" x="1209" y="29" width="1325" height="3093"/>
         <path fill="rgb(248,143,1)" stroke="none" d="M 2532,32 C 2521,31 2514,28 2504,32 2487,37 2477,58 2469,72 L 2408,180 2126,682 1867,1146 1723,1417 1616,1663 C 1609,1694 1630,1734 1639,1763 1651,1802 1666,1886 1663,1925 1657,2013 1631,2100 1599,2181 1535,2342 1427,2418 1332,2552 1259,2656 1215,2778 1210,2907 1208,2947 1220,3011 1226,3053 1228,3074 1232,3101 1252,3113 1290,3139 1332,3085 1399,3056 1465,3030 1491,3036 1566,2988 1655,2932 1697,2826 1694,2721 1692,2584 1613,2495 1606,2397 1601,2334 1628,2254 1665,2205 1689,2172 1723,2154 1731,2111 1737,2073 1723,2016 1762,1894 1811,1737 1921,1552 1988,1393 L 2154,976 2232,798 2344,512 2468,203 C 2488,150 2519,89 2532,32 Z"/>
        </g>
       </g>
       <g class="com.sun.star.drawing.ClosedBezierShape">
        <g id="id7">
         <rect class="BoundingBox" stroke="none" fill="none" x="1794" y="1327" width="144" height="143"/>
         <path fill="rgb(18,18,18)" stroke="none" d="M 1854,1328 C 1957,1323 1960,1451 1878,1467 1823,1479 1779,1422 1799,1370 1810,1343 1829,1335 1854,1328 Z"/>
        </g>
       </g>
       <g class="com.sun.star.drawing.ClosedBezierShape">
        <g id="id8">
         <rect class="BoundingBox" stroke="none" fill="none" x="1283" y="2535" width="367" height="434"/>
         <path fill="rgb(18,18,18)" stroke="none" d="M 1445,2540 C 1472,2535 1502,2533 1528,2540 1735,2602 1656,2986 1438,2967 1206,2948 1260,2596 1445,2540 Z"/>
        </g>
       </g>
       <g class="com.sun.star.drawing.ClosedBezierShape">
        <g id="id9">
         <rect class="BoundingBox" stroke="none" fill="none" x="1280" y="2531" width="374" height="441"/>
         <path fill="none" stroke="rgb(0,0,0)" stroke-width="7" stroke-linejoin="miter" d="M 1445,2540 C 1472,2535 1502,2533 1528,2540 1735,2602 1656,2986 1438,2967 1206,2948 1260,2596 1445,2540 Z"/>
        </g>
       </g>
      </g>
     </g>
    </g>
   </g>
  </g>
 </g>
</svg>